<svg aria-hidden="true" style="position:absolute;width:0;height:0;overflow:hidden" xmlns="http://www.w3.org/2000/svg"><defs><symbol id="icon-pencil" viewBox="0 0 32 32"><path d="M27 0a5 5 0 0 1 4 8l-2 2-7-7 2-2c.836-.628 1.874-1 3-1zM2 23l-2 9 9-2 18.5-18.5-7-7L2 23zm20.362-11.638-14 14-1.724-1.724 14-14 1.724 1.724z"/></symbol><symbol id="icon-download" viewBox="0 0 32 32"><path d="m16 18 8-8h-6V2h-4v8H8zm7.273-3.273-2.242 2.242L29.159 20l-13.158 4.907L2.843 20l8.127-3.031-2.242-2.242L.001 18v8l16 6 16-6v-8z"/></symbol><symbol id="icon-spinner3" viewBox="0 0 32 32"><path d="M16 9.472a1.865 1.865 0 0 1-1.865-1.865V2.011a1.865 1.865 0 0 1 3.73 0v5.596c0 1.03-.835 1.865-1.865 1.865zM16 31.155a1.166 1.166 0 0 1-1.166-1.166v-5.596a1.166 1.166 0 1 1 2.332 0v5.596c0 .644-.522 1.166-1.166 1.166zM11.805 10.48a1.749 1.749 0 0 1-1.516-.875L7.491 4.759A1.75 1.75 0 0 1 10.52 3.01l2.798 4.846a1.75 1.75 0 0 1-1.513 2.624zM22.995 29.164a1.05 1.05 0 0 1-.91-.525l-2.798-4.846a1.049 1.049 0 1 1 1.817-1.049l2.798 4.846a1.049 1.049 0 0 1-.908 1.574zM8.729 13.436c-.277 0-.557-.07-.814-.219l-4.846-2.798a1.631 1.631 0 1 1 1.632-2.826l4.846 2.798a1.631 1.631 0 0 1-.818 3.045zM28.114 23.927a.923.923 0 0 1-.465-.125l-4.846-2.798a.932.932 0 1 1 .933-1.615l4.846 2.798a.932.932 0 0 1-.468 1.74zM7.607 17.515H2.011a1.515 1.515 0 1 1 0-3.03h5.596a1.515 1.515 0 1 1 0 3.03zM29.989 16.933h-5.596a.933.933 0 0 1 0-1.866h5.596a.933.933 0 0 1 0 1.866zM3.886 24.394a1.399 1.399 0 0 1-.701-2.611l4.846-2.798a1.398 1.398 0 1 1 1.399 2.423l-4.846 2.798c-.22.127-.461.188-.698.188zM23.27 12.736a.934.934 0 0 1-.468-1.74l4.846-2.798a.933.933 0 0 1 .933 1.615l-4.846 2.798a.925.925 0 0 1-.465.125zM9.004 29.397a1.283 1.283 0 0 1-1.109-1.924l2.798-4.846a1.283 1.283 0 0 1 2.221 1.283l-2.798 4.846a1.281 1.281 0 0 1-1.112.641zM20.196 9.664a.932.932 0 0 1-.806-1.399l2.798-4.846a.932.932 0 1 1 1.615.933l-2.798 4.846a.932.932 0 0 1-.809.466z"/></symbol><symbol id="icon-search" viewBox="0 0 32 32"><path d="m31.008 27.231-7.58-6.447c-.784-.705-1.622-1.029-2.299-.998a11.954 11.954 0 0 0 2.87-7.787c0-6.627-5.373-12-12-12s-12 5.373-12 12 5.373 12 12 12c2.972 0 5.691-1.081 7.787-2.87-.031.677.293 1.515.998 2.299l6.447 7.58c1.104 1.226 2.907 1.33 4.007.23s.997-2.903-.23-4.007zM12 20a8 8 0 1 1 0-16 8 8 0 0 1 0 16z"/></symbol><symbol id="icon-eye" viewBox="0 0 32 32"><path d="M16 6C9.021 6 2.972 10.064 0 16c2.972 5.936 9.021 10 16 10s13.027-4.064 16-10c-2.972-5.936-9.021-10-16-10zm7.889 5.303A15.212 15.212 0 0 1 28.559 16a15.223 15.223 0 0 1-4.67 4.697C21.527 22.204 18.799 23 16 23s-5.527-.796-7.889-2.303A15.212 15.212 0 0 1 3.441 16a15.223 15.223 0 0 1 5.041-4.925 8 8 0 1 0 15.036 0c.124.074.248.15.371.228zM16 13a3 3 0 1 1-6 0 3 3 0 0 1 6 0z"/></symbol><symbol id="icon-heart" viewBox="0 0 32 32"><path d="M23.6 2c-3.363 0-6.258 2.736-7.599 5.594C14.659 4.736 11.764 2 8.4 2 3.763 2 0 5.764 0 10.401c0 9.433 9.516 11.906 16.001 21.232C22.131 22.365 32 19.533 32 10.401 32 5.764 28.237 2 23.6 2z"/></symbol></defs></svg>